<?xml version="1.0" encoding="utf-8"?>
<!-- Generator: Adobe Illustrator 22.0.1, SVG Export Plug-In . SVG Version: 6.00 Build 0)  -->
<svg version="1.1" id="Layer_1" xmlns="http://www.w3.org/2000/svg" xmlns:xlink="http://www.w3.org/1999/xlink" x="0px" y="0px"
	 viewBox="0 0 67.5 12.7" style="enable-background:new 0 0 67.5 12.7;" xml:space="preserve">
<style type="text/css">
	.st0{fill:#FFFFFF;}
</style>
<g>
	<path class="st0" d="M20,2.6c0.3,0.1,0.7,0.3,1,0.6c0.1,0.1,0.2,0.1,0.2,0.1c0.2,0,0.3-0.2,0.3-0.7h0.3c0,0.5,0,1.5,0,2.9h-0.3
		c-0.1-0.6-0.2-1-0.3-1.4c-0.1-0.3-0.3-0.6-0.6-0.8c-0.2-0.2-0.4-0.3-0.7-0.4c-0.3-0.1-0.5-0.1-0.8-0.1c-0.8,0-1.4,0.4-1.8,1.2
		c-0.4,0.8-0.6,1.8-0.6,2.9c0,1.2,0.2,2.1,0.6,2.9c0.4,0.8,1,1.2,1.8,1.2c0.3,0,0.5,0,0.8-0.1s0.5-0.2,0.7-0.4
		c0.3-0.2,0.5-0.5,0.6-0.8c0.1-0.3,0.2-0.8,0.3-1.5h0.3c0,1.4,0,2.5,0,3h-0.3c0-0.3-0.1-0.4-0.1-0.5c0-0.1-0.1-0.2-0.2-0.2
		c-0.1,0-0.1,0-0.3,0.1c-0.4,0.3-0.7,0.4-1,0.6c-0.3,0.1-0.7,0.2-1.2,0.2c-0.8,0-1.6-0.2-2.2-0.5c-0.6-0.3-1.1-0.8-1.5-1.5
		c-0.4-0.7-0.5-1.4-0.5-2.3c0-0.9,0.2-1.7,0.5-2.3C15.5,3.9,16,3.4,16.6,3c0.6-0.4,1.4-0.6,2.2-0.6C19.3,2.4,19.7,2.5,20,2.6z"/>
	<path class="st0" d="M28,5.5C28.6,6,28.8,6.8,28.8,8c0,1.1-0.3,2-0.8,2.5s-1.2,0.8-2.2,0.8c-0.9,0-1.6-0.3-2.2-0.8S22.9,9.1,22.9,8
		c0-1.1,0.3-2,0.8-2.5s1.2-0.8,2.2-0.8C26.8,4.7,27.5,5,28,5.5z M25.1,5.7C24.9,6.2,24.8,7,24.8,8c0,1,0.1,1.8,0.3,2.3
		s0.5,0.7,0.8,0.7c0.4,0,0.6-0.2,0.8-0.7C26.9,9.8,27,9,27,8c0-1-0.1-1.8-0.3-2.3c-0.2-0.5-0.5-0.7-0.8-0.7
		C25.5,4.9,25.3,5.2,25.1,5.7z"/>
	<path class="st0" d="M34.8,5.5C35.3,6,35.6,6.8,35.6,8c0,1.1-0.3,2-0.8,2.5s-1.2,0.8-2.2,0.8c-0.9,0-1.6-0.3-2.2-0.8
		S29.7,9.1,29.7,8c0-1.1,0.3-2,0.8-2.5s1.2-0.8,2.2-0.8C33.6,4.7,34.3,5,34.8,5.5z M31.8,5.7C31.6,6.2,31.5,7,31.5,8
		c0,1,0.1,1.8,0.3,2.3s0.5,0.7,0.8,0.7c0.4,0,0.6-0.2,0.8-0.7C33.7,9.8,33.8,9,33.8,8c0-1-0.1-1.8-0.3-2.3c-0.2-0.5-0.5-0.7-0.8-0.7
		C32.3,4.9,32,5.2,31.8,5.7z"/>
	<path class="st0" d="M38.7,10c0,0.3,0.1,0.6,0.2,0.7c0.1,0.1,0.3,0.2,0.6,0.2v0.3c-0.8,0-1.4,0-1.6,0c-0.3,0-0.8,0-1.7,0v-0.3
		c0.3,0,0.5-0.1,0.6-0.2c0.1-0.1,0.2-0.4,0.2-0.7V3.1c0-0.4-0.1-0.6-0.2-0.8c-0.1-0.2-0.3-0.3-0.6-0.3V1.8c0.3,0,0.5,0,0.7,0
		c0.7,0,1.3-0.1,1.8-0.2V10z"/>
	<path class="st0" d="M49.5,2.9c0.6,0.3,1.1,0.8,1.5,1.5c0.4,0.7,0.5,1.4,0.5,2.3c0,0.9-0.2,1.7-0.5,2.3c-0.4,0.7-0.9,1.2-1.5,1.6
		c-0.6,0.4-1.4,0.6-2.2,0.6c-0.8,0-1.6-0.2-2.2-0.5c-0.6-0.3-1.1-0.8-1.5-1.5C43.2,8.6,43,7.8,43,6.9c0-0.9,0.2-1.7,0.5-2.3
		C43.9,3.9,44.4,3.4,45,3c0.6-0.4,1.4-0.6,2.2-0.6C48.1,2.4,48.8,2.6,49.5,2.9z M46,3.2c-0.3,0.4-0.6,0.9-0.8,1.5
		C45.1,5.3,45,6,45,6.9c0,0.8,0.1,1.6,0.3,2.2s0.5,1.1,0.8,1.5c0.3,0.3,0.7,0.5,1.2,0.5c0.4,0,0.8-0.2,1.2-0.5S49,9.6,49.2,9
		c0.2-0.6,0.3-1.4,0.3-2.2c0-0.8-0.1-1.6-0.3-2.2C49,4,48.7,3.5,48.3,3.1c-0.3-0.3-0.7-0.5-1.2-0.5C46.7,2.6,46.4,2.8,46,3.2z"/>
	<path class="st0" d="M52.7,10.8c-0.3-0.3-0.4-0.6-0.4-1c0-0.4,0.1-0.7,0.3-0.9s0.4-0.4,0.7-0.5s0.6-0.3,1-0.4
		c0.4-0.2,0.8-0.3,1-0.4c0.2-0.1,0.3-0.3,0.3-0.5V6c0-0.3-0.1-0.6-0.2-0.8c-0.2-0.2-0.4-0.3-0.7-0.3c-0.4,0-0.7,0.1-0.9,0.3
		c0.2,0.1,0.4,0.2,0.5,0.4s0.2,0.3,0.2,0.6c0,0.3-0.1,0.5-0.3,0.6S53.7,7,53.5,7C53.2,7,53,7,52.8,6.8c-0.2-0.2-0.2-0.4-0.2-0.7
		c0-0.2,0.1-0.4,0.2-0.6c0.1-0.2,0.3-0.3,0.5-0.4c0.2-0.1,0.5-0.2,0.8-0.3c0.3-0.1,0.7-0.1,1-0.1c0.4,0,0.7,0,1,0.1
		c0.3,0.1,0.5,0.2,0.7,0.4c0.2,0.2,0.3,0.4,0.4,0.6c0.1,0.3,0.1,0.6,0.1,1v3.3c0,0.2,0,0.3,0.1,0.4s0.1,0.1,0.2,0.1
		c0.1,0,0.3-0.1,0.4-0.2l0.1,0.2c-0.4,0.3-0.8,0.4-1.3,0.4c-0.4,0-0.7-0.1-0.9-0.3c-0.2-0.2-0.3-0.4-0.3-0.7c-0.4,0.6-1,1-1.8,1
		C53.3,11.2,52.9,11,52.7,10.8z M55.5,9.9V7.4c-0.1,0.2-0.3,0.3-0.6,0.5c-0.3,0.2-0.5,0.4-0.7,0.6C54.1,8.8,54,9.1,54,9.4
		c0,0.3,0.1,0.6,0.2,0.7c0.1,0.2,0.3,0.2,0.5,0.2C55,10.4,55.3,10.2,55.5,9.9z"/>
	<path class="st0" d="M60.9,4.9h1.4v0.2h-1.4V10c0,0.2,0,0.4,0.1,0.5s0.2,0.1,0.4,0.1c0.3,0,0.6-0.2,0.8-0.7l0.2,0.1
		c-0.3,0.8-0.9,1.2-1.6,1.2c-0.5,0-0.9-0.1-1.2-0.4c-0.2-0.2-0.3-0.4-0.3-0.6s-0.1-0.6-0.1-1V5.1h-1V4.9h1V3.3
		c0.7,0,1.2-0.1,1.7-0.4V4.9z"/>
	<path class="st0" d="M65.9,4.8c0.3,0.1,0.5,0.2,0.6,0.3c0.1,0.1,0.2,0.1,0.2,0.1c0.1,0,0.1,0,0.2-0.1C66.9,5,67,4.9,67,4.7h0.3
		c0,0.4,0,1.1,0,2.1h-0.3c-0.1-0.5-0.2-1-0.5-1.3C66.2,5.2,65.8,5,65.4,5c-0.2,0-0.4,0.1-0.6,0.2c-0.2,0.1-0.2,0.3-0.2,0.6
		c0,0.3,0.1,0.5,0.3,0.7c0.2,0.2,0.5,0.4,0.9,0.7L66,7.4c0.5,0.4,0.8,0.7,1.1,1s0.3,0.6,0.3,1.1c0,0.4-0.1,0.7-0.3,0.9
		s-0.5,0.5-0.8,0.6c-0.3,0.1-0.7,0.2-1.1,0.2c-0.4,0-0.8-0.1-1.1-0.3c-0.3-0.1-0.4-0.2-0.6-0.3c-0.1,0-0.1,0-0.2,0.1
		s-0.1,0.2-0.1,0.3h-0.3c0-0.5,0-1.3,0-2.4h0.3c0.2,1.5,0.7,2.2,1.6,2.2c0.2,0,0.4-0.1,0.6-0.2s0.2-0.4,0.2-0.6
		c0-0.2-0.1-0.4-0.1-0.6c-0.1-0.2-0.2-0.3-0.4-0.5c-0.2-0.1-0.4-0.3-0.7-0.6c-0.4-0.3-0.6-0.5-0.8-0.7c-0.2-0.2-0.3-0.4-0.5-0.6
		C63,6.9,63,6.7,63,6.4c0-0.5,0.2-0.9,0.6-1.2C64,4.9,64.5,4.7,65,4.7C65.3,4.7,65.6,4.7,65.9,4.8z"/>
</g>
<g>
	<g>
		<path class="st0" d="M3.6,1.6C5,2.8,4.4,4.4,4.4,4.4S3,5.2,1.6,4.1S0,0.8,0,0.8S2.1,0.5,3.6,1.6z"/>
	</g>
	<g>
		<path class="st0" d="M8.9,2.9c0.4,1.8-1.1,2.7-1.1,2.7s-1.7-0.3-2-2.1S6.7,0,6.7,0S8.5,1.1,8.9,2.9z"/>
	</g>
	<g>
		<path class="st0" d="M4,9c1.8,0,2.4-1.6,2.4-1.6S5.8,5.8,3.9,5.8S0.6,7.4,0.6,7.4S2.1,9,4,9z"/>
	</g>
	<g>
		<path class="st0" d="M12.5,5.9c0.4,1.8-1.1,2.7-1.1,2.7s-1.7-0.3-2-2.1C9,4.7,10.3,2.9,10.3,2.9S12.1,4.1,12.5,5.9z"/>
	</g>
	<g>
		<path class="st0" d="M7.6,11.9c1.8,0,2.4-1.6,2.4-1.6S9.4,8.7,7.5,8.8c-1.8,0-3.3,1.6-3.3,1.6S5.7,11.9,7.6,11.9z"/>
	</g>
	<g>
		<path class="st0" d="M12.9,12.6c0,0-0.1,0.1-0.1,0.1c-0.1,0.1-0.3,0-0.4-0.1C10.7,8.8,5.1,5.3,5,5.2C4.9,5.1,4.8,5,4.9,4.8
			C5,4.7,5.2,4.6,5.3,4.7c0.2,0.1,5.8,3.7,7.6,7.5C13,12.4,13,12.5,12.9,12.6z"/>
	</g>
</g>
</svg>
